#!OML:ASF X:\2005_08_12_Meinard\c3d\meinard.ASF
:FULLY-SPECIFIED
:DEGREES
766
root 5.64668 16.6034 -0.43657 -3.04904 -72.4847 -17.3262
lowerback 42.3003 0.963605 -0.863438
upperback 8.04884 -0.277237 -0.500519
thorax -11.1307 -0.537325 0.113501
lowerneck 8.24106 -15.7727 0.15164
upperneck -14.4274 -19.8013 14.0561
head -4.22325 -10.8209 5.28359
rclavicle 3.57812e-015 2.38542e-014
rhumerus 45.6609 35.2585 57.9645
rradius 31.1189
rwrist -75.4499
rhand -50.4726 -15.0724
rfingers 7.12502
rthumb -23.0427 -43.7149
lclavicle 3.57812e-015 2.38542e-014
lhumerus 155.696 205.178 259.467
lradius 71.5462
lwrist -9.59628
lhand -19.9206 -17.5699
lfingers 7.12502
lthumb 6.41643 12.3129
rfemur 1.55022 -0.567487 8.91776
rtibia 19.6982
rfoot 2.7979 -2.35439
rtoes -21.9823
lfemur -0.533326 7.50887 -11.5813
ltibia 43.5111
lfoot -20.7763 -6.06934
ltoes -15.9637
767
root 5.71937 16.622 -0.423993 -2.63711 -72.5974 -17.7196
lowerback 42.2986 0.984057 -0.825472
upperback 8.02601 -0.236876 -0.512424
thorax -11.1567 -0.519312 0.0633603
lowerneck 8.04552 -15.7048 0.293871
upperneck -14.4562 -19.7113 13.9567
head -4.23257 -10.7743 5.22187
rclavicle 3.65764e-014 1.90833e-014
rhumerus 44.1263 33.6233 54.802
rradius 31.2359
rwrist -74.7721
rhand -51.2065 -17.1909
rfingers 7.12502
rthumb -23.7466 -45.7437
lclavicle 3.65764e-014 1.90833e-014
lhumerus 155.369 204.268 259.193
lradius 70.2079
lwrist -10.2912
lhand -20.4506 -17.3972
lfingers 7.12502
lthumb 5.90476 12.5006
rfemur 1.69404 -1.2537 9.06845
rtibia 20.1764
rfoot 2.25546 -1.93411
rtoes -21.7202
lfemur -0.641049 7.55518 -11.6507
ltibia 43.193
lfoot -20.3979 -5.93806
ltoes -15.8218
768
root 5.79169 16.6431 -0.412779 -2.28171 -72.701 -18.0722
lowerback 42.3235 1.01395 -0.800463
upperback 8.00819 -0.190535 -0.513415
thorax -11.1848 -0.49902 0.0291681
lowerneck 7.80196 -15.6461 0.444014
upperneck -14.4862 -19.6378 13.8403
head -4.23567 -10.7342 5.15024
rclavicle 1.11319e-014 8.74653e-015
rhumerus 42.9211 32.2348 52.2522
rradius 31.3494
rwrist -74.1402
rhand -51.9742 -19.185
rfingers 7.12502
rthumb -24.4828 -47.6402
lclavicle 1.11319e-014 8.74653e-015
lhumerus 155.11 203.388 258.878
lradius 68.8193
lwrist -10.9326
lhand -20.8276 -17.1481
lfingers 7.12502
lthumb 5.54081 12.7594
rfemur 1.83916 -1.89389 9.21383
rtibia 20.7219
rfoot 1.68593 -1.71968
rtoes -21.382
lfemur -0.712083 7.56424 -11.7346
ltibia 42.8354
lfoot -19.9991 -5.78299
ltoes -15.5925
769
root 5.86177 16.6667 -0.401596 -1.86665 -72.8 -18.4642
lowerback 42.3272 1.01875 -0.756895
upperback 7.97177 -0.166959 -0.533434
thorax -11.2279 -0.487967 -0.0253068
lowerneck 7.58275 -15.5815 0.646575
upperneck -14.5169 -19.5515 13.7002
head -4.2517 -10.6891 5.06847
rclavicle -4.01545e-014 -2.38542e-014
rhumerus 42.4737 31.5521 51.0613
rradius 31.454
rwrist -74.2353
rhand -52.8224 -20.87
rfingers 7.12502
rthumb -25.2956 -49.2128
lclavicle -4.01545e-014 -2.38542e-014
lhumerus 154.887 202.41 258.556
lradius 67.2808
lwrist -11.5989
lhand -21.1619 -16.821
lfingers 7.12502
lthumb 5.218 13.0947
rfemur 1.94882 -2.54347 9.37774
rtibia 21.3394
rfoot 1.0322 -1.66194
rtoes -21.1998
lfemur -0.774608 7.57432 -11.8082
ltibia 42.4349
lfoot -19.6076 -5.61686
ltoes -15.5821
770
root 5.93004 16.6903 -0.39151 -1.46566 -72.9002 -18.8522
lowerback 42.3197 1.03719 -0.712234
upperback 7.95603 -0.125537 -0.539615
thorax -11.2438 -0.469965 -0.0733053
lowerneck 7.29703 -15.5257 0.782978
upperneck -14.4987 -19.4882 13.6042
head -4.22828 -10.6528 4.99668
rclavicle -2.10712e-014 3.10104e-014
rhumerus 42.3889 31.3125 50.6882
rradius 31.5022
rwrist -74.5101
rhand -53.4905 -22.2167
rfingers 7.12502
rthumb -25.9355 -50.4674
lclavicle -2.10712e-014 3.10104e-014
lhumerus 154.768 201.336 258.241
lradius 65.6
lwrist -12.3108
lhand -21.3409 -16.4586
lfingers 7.12502
lthumb 5.04515 13.4613
rfemur 2.04682 -3.21063 9.54753
rtibia 22.0297
rfoot 0.3825 -1.73143
rtoes -21.0493
lfemur -0.799478 7.54111 -11.8822
ltibia 42.002
lfoot -19.1919 -5.43934
ltoes -15.423
771
root 5.99721 16.7147 -0.382516 -1.08872 -73.0147 -19.2065
lowerback 42.3122 1.0577 -0.68384
upperback 7.92505 -0.0897241 -0.562423
thorax -11.2771 -0.453344 -0.128416
lowerneck 7.08406 -15.4559 0.940664
upperneck -14.5357 -19.3944 13.5366
head -4.23485 -10.6081 4.9408
rclavicle 9.93923e-015 4.77083e-015
rhumerus 42.5973 31.455 50.9029
rradius 31.5171
rwrist -74.7052
rhand -53.8926 -23.363
rfingers 7.12502
rthumb -26.3205 -51.5568
lclavicle 9.93923e-015 4.77083e-015
lhumerus 154.723 200.159 257.902
lradius 63.7285
lwrist -13.0438
lhand -21.4788 -16.1249
lfingers 7.12502
lthumb 4.91207 13.7981
rfemur 2.12451 -3.92626 9.70366
rtibia 22.7729
rfoot -0.247428 -1.8361
rtoes -21.1641
lfemur -0.815792 7.53387 -11.9629
ltibia 41.5393
lfoot -18.7645 -5.25076
ltoes -15.4133
